<svg width="64" height="65" viewBox="0 0 64 65" fill="none" xmlns="http://www.w3.org/2000/svg">
<circle cx="32" cy="32.8027" r="30.75" stroke="#2B2B2B" stroke-width="2.5"/>
<path d="M13 27.0048L19.1957 51.239H44.8043L51 27.0048" stroke="#2B2B2B" stroke-width="2" stroke-linecap="round"/>
<path d="M16 38.7481C17.0694 38.9404 18.1388 38.6253 19.2082 37.8027C20.9417 36.4694 22.6753 36.4694 24.4088 37.8027C26.1424 39.1361 27.8759 39.1361 29.6094 37.8027C31.343 36.4694 33.0765 36.4694 34.8101 37.8027C36.5436 39.1361 38.2772 39.1361 40.0107 37.8027C41.7442 36.4694 43.4778 36.4694 45.2113 37.8027C46.1409 38.5177 47.0704 38.8493 48 38.7975" stroke="#2B2B2B" stroke-width="2"/>
<path d="M36.2358 28.9882C35.1363 30.1339 33.6542 30.8027 32 30.8027C30.3565 30.8027 28.8668 30.1074 27.7553 28.979C26.6568 27.8296 26 26.2615 26 24.4939C26 23.9581 26.1798 23.1965 26.5517 22.2327C26.9167 21.2868 27.4357 20.2235 28.043 19.1091C29.2524 16.8899 30.7667 14.5491 31.9999 12.6435C32.0668 12.7478 32.1346 12.8533 32.203 12.96C33.398 14.822 34.8135 17.0276 35.9574 19.1226C36.5648 20.2352 37.0837 21.2953 37.4486 22.2383C37.8204 23.1992 38 23.9584 38 24.4939C38 26.2509 37.3175 27.8268 36.2358 28.9882Z" stroke="#2B2B2B" stroke-width="2" stroke-linecap="round"/>
</svg>
