<svg width="64" height="65" viewBox="0 0 64 65" fill="none" xmlns="http://www.w3.org/2000/svg">
<circle cx="32" cy="32.1206" r="30.75" stroke="#2B2B2B" stroke-width="2.5"/>
<path d="M59 43.1878C57.1509 42.3534 55.6301 41.3803 54.4235 40.4655C52.6839 39.1456 50.6232 38.296 48.4447 38.1512C47.3801 38.0805 46.1882 38.1237 44.9109 38.3712C43.8767 38.5721 40.3906 39.2983 37.6767 42.2574C37.1133 42.8719 36.7098 43.4437 36.4427 43.8607C36.4427 43.8607 29.9717 46.4517 27.5822 47.8563C26.1405 48.7037 25.5816 50.5135 26.2365 52.0523L34.8888 50.0146C36.4775 49.9175 38.0656 49.8204 39.6538 49.7234" stroke="#2B2B2B" stroke-width="2" stroke-miterlimit="10" stroke-linecap="round" stroke-linejoin="round"/>
<path d="M23.5658 50.7111L18.5517 48.4675C17.2149 47.7935 15.6256 46.5476 14.4584 46.6139C13.6486 46.6599 12.8669 46.9702 12.2939 47.5443C12.0234 47.8148 11.8758 48.0785 12.1351 48.2048L22.7319 54.5456C24.1781 55.251 28.1058 56.3599 30.529 57.0126C31.8242 57.3611 33.1935 57.3027 34.4533 56.8425L46.7208 52.3649C48.9806 51.2633 51.6216 51.2633 53.8809 52.3654" stroke="#2B2B2B" stroke-width="2" stroke-miterlimit="10" stroke-linecap="round" stroke-linejoin="round"/>
<path d="M24.2589 47.3041L21.1499 45.904C19.6993 45.1963 17.812 44.2187 16.2761 43.4589C15.9046 43.2754 15.5022 43.1654 15.0886 43.1345C14.9539 43.1244 14.8131 43.1154 14.6767 43.1076C14.0055 43.0689 13.331 43.2737 12.8321 43.7243C12.7883 43.7642 12.7462 43.8034 12.7058 43.8433C12.331 44.2109 12.4286 44.8366 12.9006 45.0667L14.5302 45.8613L16.0651 47.0701" stroke="#2B2B2B" stroke-width="2" stroke-miterlimit="10" stroke-linecap="round" stroke-linejoin="round"/>
<path d="M26.7141 45.0863L23.6831 43.7479C17.4518 40.0547 17.0713 42.7534 17.0713 42.7534V43.8562" stroke="#2B2B2B" stroke-width="2" stroke-miterlimit="10" stroke-linecap="round" stroke-linejoin="round"/>
<path d="M36.4427 43.8606L30.6418 42.8387L24.4766 40.567C24.4553 40.5631 24.4345 40.5592 24.4132 40.5553C23.0046 40.2881 21.5876 40.9666 20.8834 42.2152L20.8284 42.3129" stroke="#2B2B2B" stroke-width="2" stroke-miterlimit="10" stroke-linecap="round" stroke-linejoin="round"/>
<path d="M41 22.8245C41 28.2624 36.9058 32.5492 32 32.5492C27.0942 32.5492 23 28.2624 23 22.8245C23 21.5921 23.5319 20.0467 24.444 18.3443C25.3438 16.6646 26.5558 14.9372 27.7867 13.3688C29.0148 11.8039 30.2454 10.4178 31.1703 9.42191C31.4876 9.08014 31.7684 8.78497 32 8.54501C32.2316 8.78497 32.5124 9.08014 32.8297 9.42191C33.7546 10.4178 34.9852 11.8039 36.2133 13.3688C37.4442 14.9372 38.6562 16.6646 39.556 18.3443C40.4681 20.0467 41 21.5921 41 22.8245Z" stroke="#2B2B2B" stroke-width="2" stroke-linecap="round"/>
<path d="M32 39.2634V15.692" stroke="#2B2B2B" stroke-width="2" stroke-linecap="round"/>
<path d="M31.9343 28.4252L25.8549 21.4063" stroke="#2B2B2B" stroke-width="2" stroke-linecap="round"/>
<path d="M31.9999 28.4252L38.0793 21.4063" stroke="#2B2B2B" stroke-width="2" stroke-linecap="round"/>
<path d="M32.0096 22.0798L27.7143 17.1206" stroke="#2B2B2B" stroke-width="2" stroke-linecap="round"/>
<path d="M32.056 22.0798L36.3514 17.1206" stroke="#2B2B2B" stroke-width="2" stroke-linecap="round"/>
</svg>
