<svg width="64" height="65" viewBox="0 0 64 65" fill="none" xmlns="http://www.w3.org/2000/svg">
<circle cx="32" cy="32.1206" r="30.75" stroke="#2B2B2B" stroke-width="2.5"/>
<path d="M18 38.2645C14.2973 39.6257 12 41.5226 12 43.6206C12 47.7627 20.9543 51.1206 32 51.1206C43.0457 51.1206 52 47.7627 52 43.6206C52 41.6997 50.0743 39.9475 46.9074 38.6206" stroke="#2B2B2B" stroke-width="2" stroke-linecap="round"/>
<path d="M40.6394 41.6804C38.534 43.847 35.6821 45.1206 32.5 45.1206C29.3285 45.1206 26.4689 43.7942 24.3516 41.6711C22.2476 39.5012 21 36.5491 21 33.2432C21 32.1608 21.3608 30.7162 22.0363 28.989C22.7046 27.2801 23.6484 25.3747 24.7413 23.396C26.9184 19.4542 29.6408 15.3033 31.8407 11.9491L31.866 11.9106C32.1027 11.5583 32.3079 11.2384 32.5 10.9375C32.6918 11.2379 32.8966 11.5572 33.1328 11.9089C33.2636 12.11 33.3962 12.3139 33.5304 12.5202C35.6613 15.7961 38.2029 19.7034 40.2591 23.4193C41.3522 25.3946 42.2959 27.2943 42.9641 28.9983C43.6394 30.7206 44 32.1611 44 33.2432C44 36.5385 42.7009 39.4985 40.6394 41.6804Z" stroke="#2B2B2B" stroke-width="2" stroke-linecap="round"/>
<path d="M29.5 22.6206L27 27.6206" stroke="#2B2B2B" stroke-width="2" stroke-linecap="round"/>
</svg>
