<svg viewBox="0 0 230 36" fill="none" xmlns="http://www.w3.org/2000/svg"><path d="M66.406 27.624h1.011v3.389h3.17v-3.389H71.6v7.88h-1.011v-3.572h-3.17v3.573h-1.012v-7.88zm12.204 8.018c-.711 0-1.251-.256-1.619-.77-.36-.52-.54-1.316-.54-2.389 0-1.072.18-1.864.54-2.377.368-.521.908-.782 1.62-.782.712 0 1.248.26 1.608.781.368.514.552 1.306.552 2.378 0 1.073-.184 1.869-.552 2.39-.36.513-.896.77-1.608.77zm0-.838c.782 0 1.173-.7 1.173-2.102v-.437c0-1.401-.391-2.102-1.172-2.102-.781 0-1.172.7-1.172 2.102v.437c0 1.401.39 2.102 1.172 2.102zm6.888-5.342h.712l.126.7h.07c.298-.558.757-.838 1.377-.838.651 0 1.08.291 1.287.873.153-.283.36-.497.62-.643.269-.153.552-.23.85-.23.95 0 1.425.61 1.425 1.827v4.354h-.942V31.22c0-.39-.069-.663-.207-.816-.138-.16-.33-.241-.574-.241-.291 0-.536.15-.735.448-.2.299-.299.7-.299 1.206v3.688h-.942V31.22c0-.39-.069-.663-.207-.816-.138-.16-.33-.241-.574-.241-.291 0-.54.15-.747.448-.199.299-.299.7-.299 1.206v3.688h-.941v-6.043zm13.521 6.18c-.766 0-1.34-.248-1.723-.746-.376-.506-.563-1.31-.563-2.413 0-1.08.188-1.876.563-2.389.375-.513.946-.77 1.711-.77.674 0 1.172.226 1.494.678.329.444.494 1.164.494 2.16v.597h-3.274c.007.705.115 1.221.322 1.55.214.33.547.495.999.495a.873.873 0 00.735-.368c.192-.245.287-.574.287-.988h.931c0 .674-.184 1.21-.552 1.608-.36.391-.834.586-1.424.586zm.988-3.722c0-.574-.084-1.01-.253-1.31-.168-.298-.417-.447-.747-.447-.406 0-.712.145-.919.436-.199.284-.317.724-.356 1.322h2.275zm9.896-3.377h-2.148v-.919h5.307v.92h-2.148v6.96h-1.011v-6.96zm8.702 7.099c-.766 0-1.34-.248-1.723-.746-.375-.506-.563-1.31-.563-2.413 0-1.08.188-1.876.563-2.389.375-.513.946-.77 1.712-.77.674 0 1.172.226 1.493.678.329.444.494 1.164.494 2.16v.597h-3.274c.008.705.115 1.221.322 1.55.214.33.547.495.999.495a.871.871 0 00.735-.368c.192-.245.288-.574.288-.988h.93c0 .674-.184 1.21-.551 1.608-.36.391-.835.586-1.425.586zm.988-3.722c0-.574-.084-1.01-.252-1.31-.169-.298-.418-.447-.747-.447-.406 0-.712.145-.919.436-.199.284-.318.724-.356 1.322h2.274zm6.889.53l-1.677-2.988h1.137l1.08 2.068h.012l1.126-2.068h1.056l-1.688 2.907 1.769 3.136h-1.137l-1.172-2.206h-.012l-1.217 2.206h-1.034l1.757-3.056zm8.232 3.17c-.383 0-.659-.13-.827-.39-.169-.269-.253-.602-.253-1V30.3h-.517v-.839h.517l.207-1.677h.735v1.677h.816v.839h-.816v3.952c0 .367.18.551.54.551h.276v.655a1.32 1.32 0 01-.322.115 1.47 1.47 0 01-.356.046zm5.032-8.42h.942v1.125h-.942v-1.126zm0 2.262h.942v6.043h-.942v-6.043zm5.677-2.262h.942v8.305h-.942v-8.306zm7.869 8.442c-.766 0-1.34-.248-1.723-.746-.375-.506-.563-1.31-.563-2.413 0-1.08.188-1.876.563-2.389.375-.513.946-.77 1.712-.77.674 0 1.172.226 1.493.678.329.444.494 1.164.494 2.16v.597h-3.274c.008.705.115 1.221.322 1.55.214.33.547.495.999.495a.871.871 0 00.735-.368c.192-.245.288-.574.288-.988h.93c0 .674-.184 1.21-.551 1.608-.36.391-.835.586-1.425.586zm.988-3.722c0-.574-.084-1.01-.252-1.31-.169-.298-.418-.447-.747-.447-.406 0-.712.145-.919.436-.199.284-.318.724-.356 1.322h2.274zm7.381 3.722c-.651 0-1.137-.168-1.459-.505a1.782 1.782 0 01-.483-1.264v-.183a.553.553 0 00.012-.07h.988v.116c0 .36.092.631.276.815.183.176.421.264.712.264.26 0 .475-.076.643-.23.176-.16.264-.382.264-.666a.83.83 0 00-.161-.528 1.128 1.128 0 00-.39-.322 4.739 4.739 0 00-.643-.276 5.128 5.128 0 01-.816-.344 1.502 1.502 0 01-.528-.506c-.146-.23-.219-.528-.219-.896 0-.528.169-.945.506-1.252.344-.314.804-.47 1.378-.47.544 0 .969.16 1.275.482.307.314.46.704.46 1.172l-.012.218h-.976v-.104c0-.268-.065-.49-.195-.666-.131-.184-.345-.276-.644-.276-.298 0-.509.085-.631.253a.95.95 0 00-.184.575c0 .26.088.455.264.585.184.123.463.245.839.368a5.8 5.8 0 01.85.368c.222.114.409.29.562.528.161.237.242.555.242.953 0 .62-.176 1.088-.529 1.402-.344.306-.811.46-1.401.46zM2.378 3.96c0-2.172 2.068-3.18 3.954-3.18 3.18 0 4.343 3.309 3.98 5.377 0 0 2.094-.905 2.094-2.585 0-1.706-1.938-3.412-5.893-3.412C1.81.16.155 2.486.155 5.097c0 5.505 10.649 5.247 10.649 9.744 0 1.525-1.861 3.18-4.317 3.18-3.954 0-4.652-4.085-3.721-6.282 0 0-2.766.517-2.766 3.154 0 2.377 2.094 3.747 6.487 3.747 4.42 0 6.643-2.998 6.643-5.143C13.13 8.534 2.378 7.5 2.378 3.96z" fill="#2F2F2F"/><path d="M36.064.362l-4.962 9.175-6.85-9.175h-4.6V.49a2.311 2.311 0 012.326 2.3v15.637h.517V1.758l7.21 9.666h.88l5.634-10.416v17.42h2.817V.362h-2.972z" fill="#2B3830"/><path d="M55.987 2.455C55.47.93 54.41 0 53.273 0h-2.326v.13c1.266 0 1.887 1.033 1.525 2.248l-5.48 16.05h.517l3.102-9.097h4.497l3.102 9.098h3.179L55.987 2.454zm-5.195 6.359l2.067-6.074 2.068 6.074h-4.135z" fill="#284131"/><path d="M84.828 18.428l-6.746-7.392-.026-.026c2.042-.827 3.49-2.791 3.49-5.143A5.51 5.51 0 0076.04.362h-9.02V.49a2.311 2.311 0 012.326 2.3v15.637h2.791v-7.03h2.766l5.324 5.841c.698.75 1.654 1.19 2.662 1.19h1.939zm-8.71-7.702c-.156.052-.31.103-.466.103-.103.026-.207.026-.336.026h-3.179V.88h3.18c1.912 0 3.489 2.248 3.489 4.988 0 1.757-.647 3.308-1.603 4.187-.336.31-.698.543-1.085.672z" fill="#244A32"/><path d="M102.332.879V.362h-14.06v.517h5.634v17.55h2.792V.878h5.634z" fill="#205333"/><path d="M122.838.362h-5.118V.49a2.311 2.311 0 012.326 2.3v15.637h2.792V.362z" fill="#1D5C34"/><path d="M145.869.362v13.233L135.505.362h-4.627V.49a2.311 2.311 0 012.327 2.3v15.637h.517V2.688l12.147 15.74h.517V.362h-.517z" fill="#196535"/><path d="M169.428.362l-5.298 15.533-4.472-13.104c-.517-1.525-1.835-2.43-3.411-2.43h-2.197v.13c1.214 0 1.912.904 2.352 2.068l5.427 16.076h1.887L169.945.362h-.517z" fill="#156E36"/><path d="M181.546.879h7.806V.362h-12.923V.49a2.311 2.311 0 012.326 2.3v15.637h10.597v-.517h-7.806V7.728h7.186V7.21h-7.186V.879z" fill="#117737"/><path d="M199.003 3.954c0-2.17 2.068-3.179 3.954-3.179 3.179 0 4.343 3.308 3.981 5.376 0 0 2.093-.904 2.093-2.584 0-1.706-1.938-3.412-5.893-3.412-4.704 0-6.358 2.326-6.358 4.936 0 5.506 10.649 5.247 10.649 9.745 0 1.524-1.861 3.179-4.317 3.179-3.954 0-4.652-4.084-3.721-6.281 0 0-2.766.517-2.766 3.153 0 2.378 2.094 3.748 6.487 3.748 4.42 0 6.643-2.998 6.643-5.143 0-4.963-10.752-5.997-10.752-9.538z" fill="#0E8038"/><path d="M230 .879V.362h-14.061v.517h5.635v17.55h2.791V.878H230z" fill="#0A8939"/></svg>