<svg width="64" height="65" viewBox="0 0 64 65" fill="none" xmlns="http://www.w3.org/2000/svg">
<path d="M62.75 32.1C62.75 49.0628 48.984 62.8162 32 62.8162C15.016 62.8162 1.25 49.0628 1.25 32.1C1.25 15.1371 15.016 1.38371 32 1.38371C48.984 1.38371 62.75 15.1371 62.75 32.1Z" stroke="#2B2B2B" stroke-width="2.5"/>
<path d="M20.6545 15.1398C27.3464 8.45499 37.6534 7.17828 45.0576 15.1398" stroke="#2B2B2B" stroke-width="2"/>
<path d="M20.2458 9.93306L19.9838 16.1561L26.2134 15.8943" stroke="#2B2B2B" stroke-width="2"/>
<path d="M43.413 49.1276C36.7211 55.8124 26.4141 57.0891 19.0099 49.1276" stroke="#2B2B2B" stroke-width="2"/>
<path d="M43.8217 54.3344L44.0837 48.1113L37.8541 48.3731" stroke="#2B2B2B" stroke-width="2"/>
<path d="M11.829 29.5997L10.731 27.8897L13.953 25.4777H15.447V38.1137H13.377V28.4297L11.829 29.5997Z" fill="#2B2B2B"/>
<path d="M22.3171 25.3697C23.7211 25.3697 24.7711 25.9457 25.4671 27.0977C26.1751 28.2617 26.5291 29.8337 26.5291 31.8137C26.5291 33.8537 26.1751 35.4377 25.4671 36.5657C24.7591 37.6937 23.7211 38.2577 22.3531 38.2577C20.9731 38.2577 19.9171 37.6877 19.1851 36.5477C18.4531 35.4077 18.0871 33.8297 18.0871 31.8137C18.0871 29.7857 18.4471 28.2077 19.1671 27.0797C19.8871 25.9397 20.9371 25.3697 22.3171 25.3697ZM20.3011 31.8137C20.3011 34.8257 20.9851 36.3317 22.3531 36.3317C23.0611 36.3317 23.5651 35.9777 23.8651 35.2697C24.1771 34.5617 24.3331 33.4097 24.3331 31.8137C24.3331 30.2297 24.1771 29.0837 23.8651 28.3757C23.5531 27.6677 23.0371 27.3137 22.3171 27.3137C21.6091 27.3137 21.0931 27.6797 20.7691 28.4117C20.4571 29.1317 20.3011 30.2657 20.3011 31.8137Z" fill="#2B2B2B"/>
<path d="M32.2838 25.3697C33.6878 25.3697 34.7378 25.9457 35.4338 27.0977C36.1418 28.2617 36.4958 29.8337 36.4958 31.8137C36.4958 33.8537 36.1418 35.4377 35.4338 36.5657C34.7258 37.6937 33.6878 38.2577 32.3198 38.2577C30.9398 38.2577 29.8838 37.6877 29.1518 36.5477C28.4198 35.4077 28.0538 33.8297 28.0538 31.8137C28.0538 29.7857 28.4138 28.2077 29.1338 27.0797C29.8538 25.9397 30.9038 25.3697 32.2838 25.3697ZM30.2678 31.8137C30.2678 34.8257 30.9518 36.3317 32.3198 36.3317C33.0278 36.3317 33.5318 35.9777 33.8318 35.2697C34.1438 34.5617 34.2998 33.4097 34.2998 31.8137C34.2998 30.2297 34.1438 29.0837 33.8318 28.3757C33.5198 27.6677 33.0038 27.3137 32.2838 27.3137C31.5758 27.3137 31.0598 27.6797 30.7358 28.4117C30.4238 29.1317 30.2678 30.2657 30.2678 31.8137Z" fill="#2B2B2B"/>
<path d="M41.4766 31.7777C40.4326 31.7777 39.5806 31.4837 38.9206 30.8957C38.2606 30.3077 37.9306 29.5277 37.9306 28.5557C37.9306 27.5957 38.2606 26.8217 38.9206 26.2337C39.5806 25.6457 40.4326 25.3517 41.4766 25.3517C42.5086 25.3517 43.3546 25.6457 44.0146 26.2337C44.6866 26.8337 45.0226 27.6077 45.0226 28.5557C45.0226 29.5157 44.6866 30.2957 44.0146 30.8957C43.3546 31.4837 42.5086 31.7777 41.4766 31.7777ZM39.8746 28.5557C39.8746 29.0237 40.0246 29.4017 40.3246 29.6897C40.6246 29.9657 41.0086 30.1037 41.4766 30.1037C41.9566 30.1037 42.3466 29.9657 42.6466 29.6897C42.9466 29.4017 43.0966 29.0237 43.0966 28.5557C43.0966 28.0997 42.9406 27.7337 42.6286 27.4577C42.3286 27.1697 41.9446 27.0257 41.4766 27.0257C41.0086 27.0257 40.6246 27.1697 40.3246 27.4577C40.0246 27.7337 39.8746 28.0997 39.8746 28.5557ZM49.4326 38.2937C48.3886 38.2937 47.5366 37.9997 46.8766 37.4117C46.2166 36.8237 45.8866 36.0437 45.8866 35.0717C45.8866 34.1117 46.2166 33.3377 46.8766 32.7497C47.5366 32.1617 48.3886 31.8677 49.4326 31.8677C50.4646 31.8677 51.3106 32.1617 51.9706 32.7497C52.6426 33.3497 52.9786 34.1237 52.9786 35.0717C52.9786 36.0317 52.6426 36.8117 51.9706 37.4117C51.3106 37.9997 50.4646 38.2937 49.4326 38.2937ZM47.8306 35.0717C47.8306 35.5397 47.9806 35.9177 48.2806 36.2057C48.5806 36.4817 48.9646 36.6197 49.4326 36.6197C49.9126 36.6197 50.3026 36.4817 50.6026 36.2057C50.9026 35.9177 51.0526 35.5397 51.0526 35.0717C51.0526 34.6157 50.8966 34.2497 50.5846 33.9737C50.2846 33.6857 49.9006 33.5417 49.4326 33.5417C48.9646 33.5417 48.5806 33.6857 48.2806 33.9737C47.9806 34.2497 47.8306 34.6157 47.8306 35.0717ZM41.5126 38.3117L40.3246 37.4837L49.4146 25.3157L50.5846 26.1977L41.5126 38.3117Z" fill="#2B2B2B"/>
</svg>
